<?xml version="1.0" encoding="UTF-8"?>
<svg id="Layer_1" data-name="Layer 1" xmlns="http://www.w3.org/2000/svg" viewBox="0 0 565.91 544.47">
  <defs>
    <style>
      .cls-1 {
        fill: #060604;
      }

      .cls-2 {
        fill: #fbfb08;
      }

      .cls-3 {
        fill: #fdfdfd;
      }
    </style>
  </defs>
  <path class="cls-1" d="M259.88,540.97c-45.87-5.69-83-12.6-125.55-28.13-36.89-13.47-65.85-30.58-90.96-60.97-14.03-16.98-23.86-35.06-30.85-56.03C2.82,366.72-1.47,334.42.45,303.67l.75-12.04c1.08-17.23,2.83-33.84,5.96-50.82l7.91-42.9c7.92-42.97,19.47-80.3,46.21-115.52,10.56-13.91,23.99-24.21,37.23-35.22,16.2-13.47,37.23-22.01,57.25-28.7l7.53-2.51C206.28,1.59,248.02-1.52,293.41.6l16.01.75c15.63.73,30.51,3.52,45.74,7.27,35.31,8.69,66.46,26.12,94.39,49.18,15.18,12.54,27.65,26.33,40.64,41.22,27.72,31.77,49.11,68.28,63.21,108.02,1.29,3.65,6.77,23.84,7.47,27.32,1.45,7.19,2.47,14.2,3.47,21.59,4.86,35.82-1.86,82.6-14.9,116.59-7.62,19.86-17.86,37.98-30.11,55.29-22.55,31.9-50.34,58.12-83.05,79.43-27.92,18.19-58.21,30.51-91.39,35.02-21.82,2.97-51.39,2.88-73.23.17l-11.75-1.46ZM27.83,299.68v28.95c0,8.69.63,17.58,2.33,26.55l3.55,18.76c1.61,8.48,4.5,15.75,7.9,23.67,9.63,22.4,24.06,41.4,43.1,56.93,20.5,16.72,43.57,29.31,68.74,37.89,23.72,8.09,46.84,13.91,71.62,17.12l51.25,6.65,31.93,1.55c16.39.8,45.72-3.13,61.82-8.45,12.44-4.11,23.81-9.13,34.52-16.4,6.33-4.3,13.18-6.54,19.83-10.21,17.03-9.39,38.56-27.91,50.97-42.71,6.21-7.41,12.49-14.59,17.07-22.98,1.67-3.05,3.31-5.04,5.36-7.63,7.68-9.71,19.06-32.69,23.18-44.64,6.06-17.53,11.58-34.99,12.89-53.48.47-6.65,1.33-12.72,1.43-19.59.3-21.19-1.23-41.75-6.92-62.16-4.3-15.42-9.14-29.46-16.22-43.84-20.4-41.46-50.87-80.75-87.79-108.56l-6.34-4.78c-22.91-17.26-50.31-31.21-78.68-35.25-9.26-1.32-17.99-2.89-27.07-3.53-8.49-.6-12.31-1.77-20.9-2.12l-22.82-.92c-2.94-.12-5.96,1.09-9.15.64-4.32-.61-30.31.83-32.17,1.65-5.79,2.55-7.46-.51-21.7,3.18-2.06.53-3.58,2.2-5.48,1.1-19.88,2.58-43.49,11.56-62.08,21.14-1.33.68-1.98,2.47-3.37,2.78-5.11,1.15-8.86,3.98-12.36,7.67-1.88,1.98-5.21,1.88-7.42,3.64-26.7,21.23-35.39,30.13-49.99,60.74-12.13,25.43-18.73,52.15-24.31,79.73-2.63,12.98-6.24,24.85-7.95,38.04l-2.71,20.93-.92,10c-.56,6.05.06,11.79-1.14,17.95Z"/>
  <path class="cls-2" d="M27.83,328.63c.77.08,1.04-.91,1.04-1.95v-25.04c0-1.04-.26-2.04-1.04-1.95,1.2-6.16.58-11.89,1.14-17.95l.92-10,2.71-20.93c1.71-13.19,5.32-25.06,7.95-38.04,5.58-27.57,12.18-54.29,24.31-79.73,14.6-30.61,23.29-39.5,49.99-60.74,2.21-1.76,5.54-1.66,7.42-3.64,3.51-3.69,7.25-6.52,12.36-7.67,1.39-.31,2.05-2.1,3.37-2.78,18.59-9.58,42.21-18.56,62.08-21.14,1.9,1.1,3.42-.56,5.48-1.1,14.24-3.69,15.92-.63,21.7-3.18,1.86-.82,27.85-2.25,32.17-1.65,3.18.45,6.2-.76,9.15-.64l22.82.92c8.59.35,12.41,1.52,20.9,2.12,9.08.64,17.81,2.21,27.07,3.53,28.36,4.04,55.77,17.99,78.68,35.25l6.34,4.78c36.92,27.82,67.38,67.1,87.79,108.56,7.08,14.38,11.92,28.41,16.22,43.84,5.69,20.41,7.22,40.98,6.92,62.16-.1,6.87-.95,12.94-1.43,19.59-1.31,18.48-6.83,35.95-12.89,53.48-4.13,11.95-15.5,34.94-23.18,44.64-2.05,2.6-3.7,4.58-5.36,7.63-4.58,8.39-10.86,15.57-17.07,22.98-12.41,14.8-33.94,33.32-50.97,42.71-6.65,3.67-13.5,5.91-19.83,10.21-10.7,7.27-22.08,12.29-34.52,16.4-16.1,5.32-45.44,9.24-61.82,8.45l-31.93-1.55-51.25-6.65c-24.78-3.21-47.89-9.04-71.62-17.12-25.17-8.58-48.23-21.17-68.74-37.89-19.04-15.52-33.47-34.52-43.1-56.93-3.4-7.92-6.29-15.19-7.9-23.67l-3.55-18.76c-1.7-8.98-2.33-17.87-2.33-26.55ZM403.69,475.95c15.07-7.51,29.5-15.6,41.89-27.06,5.23-4.83,10.21-8.88,14.7-14.49l12.39-15.47c4.02-5.02,6.59-11.2,10.87-15.94,2.47-2.73,2.88-5.35,4.51-8.5,6.35-12.25,11.99-24.2,16.6-37.13,4.37-12.27,13.69-48.65,12.67-60.6l-3.04-35.73c-4.28-50.32-8.99-26.32-19.63-62.7-1.44-4.93-4.73-9.67-5.93-14.8-1.54-6.54-4.45-12.27-6.94-18.34-5.51-13.46-13.44-25.02-23.02-35.86l-7.95-9c-11.19-12.66-31.5-26.95-46.46-35.55-5.95-3.42-12.68-5.43-18.51-9.21-2.17-1.41-3.63-2-6.2-2.87l-31.99-10.73-19.75-4.44c-19.84-4.47-39.04-7.95-59.41-7.43-9.84.25-18.93-.53-28.7.46-25.47,2.58-50.33,7.37-74.14,16.36-11.08,4.18-20.36,9.65-30.4,15.48-9.03,5.24-16.25,12.05-24.14,19.03-4.74,4.2-8.49,9.52-12.51,14.51-14.67,18.21-23.85,45.38-26.15,68.76-8.68,24.7-15.1,48.57-19.23,74.47l-5.03,31.54c-.7,4.37-.77,9.42-.93,13.84-.88,23.99.94,46.97,7.45,69.89,9.89,34.81,31.04,65.04,61.77,83.95,11.93,7.34,24.56,11.4,37.5,15.8l17.74,6.04,12.33,2.79c13.8,3.12,27.12,7.26,41.37,8.39,6.56.52,31.69,4.45,36.6,4.25,3.19-.13,5.8-.11,9.01.18,18.14,1.63,47.11.73,65.36-2.17,2.12-.34,4.11.22,6.42-.37,9.61-2.45,23.3-3.53,29.41-6.02,9.14-3.73,21.11-6.16,31.49-11.33Z"/>
  <path class="cls-3" d="M27.83,328.63v-28.95c.78-.08,1.04.91,1.04,1.95v25.04c0,1.05-.26,2.03-1.04,1.95Z"/>
  <path class="cls-1" d="M403.69,475.95c-10.38,5.17-22.35,7.6-31.49,11.33-6.11,2.49-19.8,3.57-29.41,6.02-2.3.59-4.3.03-6.42.37-18.24,2.9-47.21,3.8-65.36,2.17-3.21-.29-5.82-.31-9.01-.18-4.91.21-30.04-3.73-36.6-4.25-14.26-1.13-27.58-5.27-41.37-8.39l-12.33-2.79-17.74-6.04c-12.93-4.4-25.56-8.46-37.5-15.8-30.73-18.9-51.88-49.14-61.77-83.95-6.51-22.92-8.32-45.9-7.45-69.89.16-4.42.24-9.47.93-13.84l5.03-31.54c4.13-25.9,10.56-49.77,19.23-74.47,2.3-23.38,11.48-50.55,26.15-68.76,4.02-4.99,7.76-10.31,12.51-14.51,7.89-6.98,15.11-13.79,24.14-19.03,10.04-5.83,19.32-11.3,30.4-15.48,23.81-8.98,48.68-13.78,74.14-16.36,9.77-.99,18.85-.21,28.7-.46,20.36-.52,39.56,2.96,59.41,7.43l19.75,4.44,31.99,10.73c2.57.86,4.02,1.46,6.2,2.87,5.83,3.78,12.56,5.79,18.51,9.21,14.96,8.6,35.27,22.89,46.46,35.55l7.95,9c9.58,10.84,17.51,22.4,23.02,35.86,2.49,6.07,5.4,11.81,6.94,18.34,1.21,5.13,4.49,9.88,5.93,14.8,10.64,36.38,15.35,12.38,19.63,62.7l3.04,35.73c1.02,11.95-8.31,48.33-12.67,60.6-4.6,12.93-10.25,24.88-16.6,37.13-1.63,3.15-2.05,5.77-4.51,8.5-4.28,4.74-6.86,10.92-10.87,15.94l-12.39,15.47c-4.49,5.61-9.47,9.66-14.7,14.49-12.39,11.46-26.82,19.54-41.89,27.06ZM321.95,193.97c13.61-.5,14.1-21.17,22.23-30.12,5.71-5.14,17.58,12.21,20.8,16.36,5.53,3.51,12.43,4,18.46.37-1.62-6.15-21.58-20.4-27.26-23.68-3.35-1.93-5.97-5.85-3.43-9.73l15.36-23.47c2.26-3.46-3.44-9.28-6.94-7.96-7.25,2.74-13.77,18.35-17.58,24.52-.87,1.41-5.43,1.32-6.84.22-6.78-5.25-12.53-12.27-19.41-17.03-2.45-1.7-6.54-.25-7.51,1.39-4.75,8.05,18.54,22.15,25.04,28.62,2.87,2.86-6.16,14.83-8.32,17.7-1.99,2.65-15.78,23.2-4.6,22.79ZM155.69,204c2.34-3.52,3.51-8.11,7.59-10.36l14.14,16.46c2.73,3.18,5.68,6.38,9.1,8.72,3.22,2.2,7.7.75,9.03-2.31,1.66-3.83.4-5.92-3.15-8.56-9.11-6.77-18.34-13.34-26.23-21.51-2.11-2.19.72-5.93,2.19-7.58l11.4-12.79c4.34-4.87,13.92-12.4,11.22-18.04-.77-1.61-2.34-4.45-5.27-3.96-4.03.67-6.05,4.71-8.36,7.64l-14.9,18.9c-.81,1.02-2.03,2.46-3.11,2.13-.8-.24-1.97-1.07-2.55-2.02l-9.53-15.48c-1.51-2.45-5.3-4.76-8.08-2.51-1.72,1.39-2.01,6.48-.62,8.49,3.71,5.37,7.3,10.43,11.46,15.32,1.9,2.24,3.92,3.17,3.93,5.87.04,6.91-17.08,23.39-17.71,33.12-.21,3.25,4.62,4.77,6.78,4.31,6.87-1.46,7.38-7.85,12.68-15.82ZM118.8,347.99c18.53,29.36,23.15,20.96,36.54,25.06l8.43,2.58c6.99,2.14,14.49,2.03,21.49,4.13,6.48,1.95,10.32,7.79,14.84,12.29l10.42,10.38c5.05,5.03,10.31,8.89,15.82,13.17,10.03,7.78,21.5,12.67,34.51,14.31,9.11,1.15,36.41,1.3,45.38-2.47l8.66-3.64c9.24-3.88,12.97-7.12,21.55-7.43,7-.25,13.63-1.34,20.95-.89,5.84.36,13.18-.09,17.38-4.19,4.43-4.33,8.81-7.93,12.69-12.37,6.16-7.05,10.56-14.85,15.8-22.4,2.61-3.76,8.24,1.21,10.3,3.46,7.3,7.97,13.21,15.78,21.74,22.37,12.41,9.6,28.02-.63,31.16-7.06l3.07-6.29c3.69-7.57,2.54-16.66,1.99-24.52-.73-10.58-5.1-25.56-16.03-30.09-2.59-1.07-5.26-2.12-8.01-2.81l-12.46-3.11c2.61-9.47,2.3-19.05,3.42-28.53,1.29-10.92.27-20.61,3.7-28.18,5.22-11.49,8.21-23.07,9.17-35.94,3.52-.43,7.1,1.09,10.38.23,1.2-.32,2.65-3.52,1.94-4.5-.61-.84-1.28-2.98-2.47-3.97-6.41-5.33-15.14-7.43-23.56-8.15-3.64-.31-7.7-2.69-11.35-1.31-3.15,1.19-.93,6.46,1.06,7.44l10.84,5.32c3.53,1.74.73,9.49-.55,12.94l-6.6,17.89c-2.56,6.93-1.94,14.5-1.62,21.96.19,4.56-.61,8.69-.81,13.07-.89,19.73-9.97,31.52-21.38,45.82-6.65,8.34-18.3,27.29-22.28,37.25-1.44,3.61-2.55,4.69-5.31,7.27-4.88,4.56-9.71,10.72-17.39,11.18-8.16.49-33.86-2.99-38.4,3.78-5.38,8.03-17.2,16.49-27.15,17.94-12.21,1.78-25.07.54-36.83-4-6.71-2.59-13.35-4.86-19.24-8.41-16.01-9.64-29.18-21.51-38.1-37.97-9.74-3.75-8.43-9.84-24.93-10.06l-31.02-.42c-5.47-.07-14.51-11.59-16.75-15.51-10.82-18.96-12.65-27.02-18.8-48.09l14.06-8.52c1.1-.67,2.21-1.79,2-2.67-.19-.79-1.31-2.86-2.69-2.7-8.27.97-16.95,1.76-24.44,5.34-4.16,1.99-26.81,14.06-20.29,20.04,3.58,3.28,12.34-6.85,19.21-6.98,1.68-.03,2.62,3.77,3.06,5.4,4,14.81,8.45,29.18,16.89,42.55Z"/>
  <path class="cls-2" d="M321.95,193.97c-11.19.41,2.6-20.14,4.6-22.79,2.16-2.87,11.19-14.85,8.32-17.7-6.5-6.47-29.8-20.57-25.04-28.62.97-1.64,5.06-3.09,7.51-1.39,6.88,4.77,12.63,11.78,19.41,17.03,1.41,1.09,5.96,1.19,6.84-.22,3.82-6.17,10.33-21.79,17.58-24.52,3.5-1.32,9.2,4.51,6.94,7.96l-15.36,23.47c-2.54,3.88.08,7.79,3.43,9.73,5.68,3.28,25.65,17.52,27.26,23.68-6.03,3.63-12.93,3.14-18.46-.37-3.21-4.15-15.09-21.5-20.8-16.36-8.13,8.95-8.62,29.62-22.23,30.12Z"/>
  <path class="cls-2" d="M155.69,204c-5.3,7.98-5.81,14.36-12.68,15.82-2.16.46-7-1.06-6.78-4.31.63-9.73,17.75-26.21,17.71-33.12-.02-2.7-2.03-3.63-3.93-5.87-4.16-4.89-7.75-9.95-11.46-15.32-1.39-2-1.1-7.09.62-8.49,2.77-2.25,6.57.06,8.08,2.51l9.53,15.48c.58.95,1.75,1.78,2.55,2.02,1.08.33,2.3-1.11,3.11-2.13l14.9-18.9c2.31-2.93,4.33-6.96,8.36-7.64,2.93-.49,4.5,2.35,5.27,3.96,2.7,5.63-6.88,13.17-11.22,18.04l-11.4,12.79c-1.47,1.65-4.3,5.39-2.19,7.58,7.88,8.18,17.11,14.74,26.23,21.51,3.55,2.64,4.81,4.73,3.15,8.56-1.33,3.06-5.81,4.52-9.03,2.31-3.42-2.34-6.37-5.54-9.1-8.72l-14.14-16.46c-4.08,2.25-5.25,6.83-7.59,10.36Z"/>
  <g>
    <path class="cls-2" d="M118.8,347.99c-8.44-13.37-12.89-27.73-16.89-42.55-.44-1.63-1.38-5.43-3.06-5.4-6.86.14-15.63,10.26-19.21,6.98-6.52-5.98,16.13-18.05,20.29-20.04,7.49-3.59,16.17-4.37,24.44-5.34,1.37-.16,2.5,1.91,2.69,2.7.22.89-.89,2-2,2.67l-14.06,8.52c6.15,21.06,7.98,29.13,18.8,48.09,2.23,3.91,11.28,15.43,16.75,15.51l31.02.42c16.49.23,15.19,6.31,24.93,10.06,8.92,16.46,22.09,28.33,38.1,37.97,5.9,3.55,12.53,5.82,19.24,8.41,11.76,4.54,24.62,5.78,36.83,4,9.95-1.45,21.77-9.91,27.15-17.94,4.54-6.77,30.23-3.3,38.4-3.78,7.68-.46,12.5-6.61,17.39-11.18,2.76-2.58,3.87-3.67,5.31-7.27,3.98-9.96,15.62-28.91,22.28-37.25,11.41-14.3,20.49-26.1,21.38-45.82.2-4.38,1-8.51.81-13.07-.31-7.46-.93-15.04,1.62-21.96l6.6-17.89c1.27-3.45,4.08-11.2.55-12.94l-10.84-5.32c-1.99-.98-4.2-6.25-1.06-7.44,3.65-1.38,7.71,1,11.35,1.31,8.42.72,17.15,2.82,23.56,8.15,1.19.99,1.86,3.13,2.47,3.97.71.98-.74,4.19-1.94,4.5-3.28.86-6.86-.65-10.38-.23-.96,12.88-3.95,24.45-9.17,35.94-3.44,7.56-2.41,17.25-3.7,28.18-1.12,9.49-.81,19.06-3.42,28.53l12.46,3.11c2.75.69,5.42,1.73,8.01,2.81,10.93,4.53,15.3,19.51,16.03,30.09.54,7.87,1.7,16.96-1.99,24.52l-3.07,6.29c-3.14,6.44-18.75,16.66-31.16,7.06-8.52-6.59-14.44-14.4-21.74-22.37-2.06-2.25-7.7-7.22-10.3-3.46-5.23,7.55-9.64,15.35-15.8,22.4-3.88,4.44-8.25,8.04-12.69,12.37-4.2,4.1-11.55,4.55-17.38,4.19-7.33-.45-13.95.64-20.95.89-8.58.3-12.31,3.54-21.55,7.43l-8.66,3.64c-8.97,3.77-36.27,3.61-45.38,2.47-13-1.63-24.48-6.53-34.51-14.31-5.51-4.27-10.77-8.13-15.82-13.17l-10.42-10.38c-4.52-4.5-8.36-10.33-14.84-12.29-7-2.11-14.5-1.99-21.49-4.13l-8.43-2.58c-13.39-4.1-18.02,4.3-36.54-25.06ZM424.59,376.21l8.08,8.65c2.66,2.85,12.29,9.8,17.41,8.22,7.35-2.25,18.19-24.38,4.77-40.69-2.64-3.21-21.91-17.92-27.85-12.67-1.62,1.43-4.06,5.88-1.86,7.57,5.93,4.54,12.07,8.25,18.39,11.9,3.65,2.11,4.08,5.66,3.01,9.87-.67,2.63-1.78,4.87-4.25,5.4-5.28,1.14-10.17-6.76-10.71-8.15-1.56-3.98-13.13-12.11-19.44-9.38.54,17.49.8,6.81,12.45,19.27Z"/>
    <path class="cls-1" d="M424.59,376.21c-11.65-12.46-11.9-1.78-12.45-19.27,6.31-2.73,17.88,5.4,19.44,9.38.54,1.39,5.43,9.29,10.71,8.15,2.47-.53,3.58-2.77,4.25-5.4,1.07-4.2.64-7.75-3.01-9.87-6.32-3.65-12.46-7.36-18.39-11.9-2.2-1.69.24-6.14,1.86-7.57,5.94-5.26,25.21,9.46,27.85,12.67,13.42,16.3,2.58,38.43-4.77,40.69-5.13,1.57-14.75-5.37-17.41-8.22l-8.08-8.65Z"/>
  </g>
</svg>